<svg id="Layer_1" data-name="Layer 1" xmlns="http://www.w3.org/2000/svg" viewBox="0 0 494.39 494.03"><defs><style>.cls-1{fill:none;stroke:#0b82a4;stroke-miterlimit:10;stroke-width:11px;}</style></defs><circle class="cls-1" cx="167.25" cy="326.78" r="161.75"/><circle class="cls-1" cx="167" cy="326.53" r="128.5"/><polyline class="cls-1" points="71.5 197.03 71.5 119.53 151.5 119.53 151.5 165.03"/><line class="cls-1" x1="23.44" y1="252.68" x2="23.5" y2="114.53"/><line class="cls-1" x1="199.5" y1="114.53" x2="199.5" y2="168.25"/><path class="cls-1" d="M34.5,91.5c-5,5-8.26,15.39-4,22,5.47,8.49,22.88,5.22,24,5l78-65,76,62c6.16,5.53,14.81,6.62,21,3,7.95-4.64,11-16.54,5-26-29-23-92.54-75.93-101-76C124.12,16.43,39.5,86.5,34.5,91.5Z" transform="translate(-22 -9.97)"/><path class="cls-1" d="M279.5,197.5l180-181s10-6,30,11,24,25,20,32-182,185-182,185" transform="translate(-22 -9.97)"/><line class="cls-1" x1="389.5" y1="54.53" x2="438.5" y2="101.53"/><polyline class="cls-1" points="460.5 89.53 454.33 84.5 486.5 119.53 463.5 145.53 446.5 134.53 428.5 150.53 438.5 166.53 413.5 192.53 381.36 158.39"/><path class="cls-1" d="M351,330.13l73.5.37s23,2,31,17,21,61,21,61,25,3,29,13,3,36,3,36,1,15-10,15H472" transform="translate(-22 -9.97)"/><circle class="cls-1" cx="422.5" cy="463.53" r="25"/><path class="cls-1" d="M307.08,447.54c.47,0,.94,0,1.42,0a25,25,0,1,1-24.57,20.4" transform="translate(-22 -9.97)"/><line class="cls-1" x1="313.5" y1="463.53" x2="397.5" y2="463.53"/><path class="cls-1" d="M350.5,360.5h72s4-2,7,7,15,42,15,42v36" transform="translate(-22 -9.97)"/><line class="cls-1" x1="350.5" y1="350.53" x2="350.5" y2="462.53"/><line class="cls-1" x1="313.5" y1="398.53" x2="418.5" y2="398.53"/><path class="cls-1" d="M175.5,378.5l-47.54,6s-18,5-18,17v35" transform="translate(-22 -9.97)"/><path class="cls-1" d="M269.5,438V403c0-12-18-17-18-17L207,378.5l-16.48,34-20-37" transform="translate(-22 -9.97)"/><path class="cls-1" d="M133.34,333.13l.16-46.63s-1-10,5-15,18-12,18-12,22-20,33-18,16,0,26,5,24,22,27,32,3,56,3,56,0,9-9,11a87.85,87.85,0,0,1-17,2s-3.89,11.89-11,19c-3,3-4,6-18,6s-17.57-1.5-21-4c-11-8-11-21.92-12-19L146,347a11.34,11.34,0,0,1-4.54-2.12l-3.84-3A11.15,11.15,0,0,1,133.34,333.13Z" transform="translate(-22 -9.97)"/><path class="cls-1" d="M219.5,309.5" transform="translate(-22 -9.97)"/><line class="cls-1" x1="197.5" y1="300.03" x2="197.5" y2="339.53"/><line class="cls-1" x1="135.5" y1="296.53" x2="135.5" y2="337.53"/><path class="cls-1" d="M133.39,320.65s18.11-16.15,23.11-8.15" transform="translate(-22 -9.97)"/><path class="cls-1" d="M157.5,309.5s5-17,13-13,9,10,19,14,24,6,28,4,24,3,28,7" transform="translate(-22 -9.97)"/></svg>