<svg id="Layer_1" data-name="Layer 1" xmlns="http://www.w3.org/2000/svg" xmlns:xlink="http://www.w3.org/1999/xlink" viewBox="0 0 496 496"><path fill="#0B82A4" d="M480.34,256.34a19.28,19.28,0,0,0-3.48-7.13L427.15,185.3a24.63,24.63,0,0,0-23-8.84,191.71,191.71,0,0,0-312.24,0,24.74,24.74,0,0,0-23,8.87L19.16,249.19a19.12,19.12,0,0,0-3.5,7.17L.57,316.72A19.3,19.3,0,0,0,0,321.38v69.24a19.3,19.3,0,0,0,.57,4.66L13.75,448H0v48H128V448H112V423.45a191.84,191.84,0,0,0,272,0V448H368v48H496V448H482.25l13.18-52.72a19.3,19.3,0,0,0,.57-4.66V321.38a19.3,19.3,0,0,0-.57-4.66ZM248,112c97.05,0,176,78.95,176,176a175.11,175.11,0,0,1-7.95,52.32l-12.46-41.54a26.18,26.18,0,0,0-11.8-15.06C389.5,206.31,326,144,248,144S106.5,206.31,104.21,283.72a26.22,26.22,0,0,0-11.8,15.06L80,340.32A175.11,175.11,0,0,1,72,288C72,191,151,112,248,112ZM200.18,292.29A68.7,68.7,0,0,1,219.41,248h57.18a68.68,68.68,0,0,1,19.23,44.29A72,72,0,0,0,264,352v62.92A126.83,126.83,0,0,1,248,416a128.47,128.47,0,0,1-16-1V352A72,72,0,0,0,200.18,292.29ZM198.82,248a84.21,84.21,0,0,0-14,36.51A71.74,71.74,0,0,0,160,280H120.41a126.89,126.89,0,0,1,6.09-32Zm-65.74-16a127.71,127.71,0,0,1,229.84,0Zm8.79,64H160a56.07,56.07,0,0,1,56,56v59.92a127.38,127.38,0,0,1-82.3-66.26l-.59.3,9.54-28.6A26.58,26.58,0,0,0,144,309v-2.67A26.28,26.28,0,0,0,141.87,296ZM280,352a56.07,56.07,0,0,1,56-56h18.13A26.28,26.28,0,0,0,352,306.35V309a26.58,26.58,0,0,0,1.35,8.34L362.56,345A128.59,128.59,0,0,1,280,411.82Zm56-72a71.74,71.74,0,0,0-24.86,4.51,84.09,84.09,0,0,0-14-36.51h72.33a127.78,127.78,0,0,1,6.09,32ZM112,480H16V464h96ZM96,406.7V448H30.26L16,390.62l.1-70,15.08-60.32a3.07,3.07,0,0,1,.6-1.23L77,200.93A190,190,0,0,0,58.3,258.36a18.92,18.92,0,0,0-2.58,5.78l-14.6,58.4a19.15,19.15,0,0,0,.81,11.82L53.74,363.9a19.26,19.26,0,0,0,36.33-1.63l17.67-58.89a10.35,10.35,0,0,1,20.26,3V309a10.43,10.43,0,0,1-.53,3.28ZM69.63,359.11a2.7,2.7,0,0,1-1-1.15L56.78,328.43a3.25,3.25,0,0,1-.14-2L58.49,319A189.86,189.86,0,0,0,69.63,359.11ZM248,464a175.51,175.51,0,0,1-133.7-61.62l12.33-37A143.22,143.22,0,0,0,248,432a144.69,144.69,0,0,0,121.37-66.59l12.32,37A175.36,175.36,0,0,1,248,464Zm232,16H384V464h96Zm-.1-88.59L465.75,448H400V406.7l-31.47-94.4A10.43,10.43,0,0,1,368,309v-2.67a10.35,10.35,0,0,1,20.26-3l17.67,58.89a19.26,19.26,0,0,0,36.33,1.62l11.82-29.55a19.18,19.18,0,0,0,.8-11.81l-14.6-58.42a19,19,0,0,0-2.58-5.76A189.91,189.91,0,0,0,419,200.94l45.19,58.11a3.45,3.45,0,0,1,.59,1.18L480,321.38ZM426.38,359.1A189,189,0,0,0,437.51,319l1.85,7.38a3.18,3.18,0,0,1-.14,2L427.41,358A2.87,2.87,0,0,1,426.38,359.1ZM272,288a24,24,0,1,0-24,24A24,24,0,0,0,272,288Zm-32,0a8,8,0,1,1,8,8A8,8,0,0,1,240,288ZM298.32,37.05a70.67,70.67,0,0,0-100.64,0L186.32,25.81a86.61,86.61,0,0,1,123.36,0Zm-22.4,22.64a39.19,39.19,0,0,0-55.84,0L208.71,48.44a55.17,55.17,0,0,1,78.58,0Zm-11,11.37L253.51,82.31a7.91,7.91,0,0,0-11,0L231.11,71.06C240.12,62,255.88,62,264.89,71.06Z"/></svg>