<svg height="496pt" viewBox="0 0 496 496" width="496pt" xmlns="http://www.w3.org/2000/svg" xmlns:xlink="http://www.w3.org/1999/xlink"><path fill="#0B82A4" d="m48 448h16v16h-16zm32 16h16v-16h-16zm32 0h16v-16h-16zm272 0h64v-16h-64zm-256-432h-16v16h16zm32 0h-16v16h16zm32 0h-16v16h16zm288 384h16v40c0 22.054688-17.945312 40-40 40h-416c-22.054688 0-40-17.945312-40-40v-40h16v-264c0-22.054688 17.945312-40 40-40h24v-112h336v96h-16v-16h-304v224h40c0-61.761719 50.238281-112 112-112 2.703125 0 5.34375.214844 8 .40625v-96.40625h128v160h-34.960938c6.953126 14.574219 10.960938 30.808594 10.960938 48h40v-192h40c22.054688 0 40 17.945312 40 40zm-64-288v16h16c8.824219 0 16 7.175781 16 16v256h16v-264c0-13.230469-10.769531-24-24-24zm-144 66.65625c27.902344 6.121094 51.921875 22.664062 67.785156 45.34375h28.214844v-128h-96zm-120 109.34375c0 19.71875 5.992188 38.054688 16.222656 53.320312 1.144532-16.558593 12.53125-30.992187 28.65625-35.609374l27.121094-7.742188v-2.136719c-9.96875-7.511719-16-19.328125-16-31.832031v-16c0-11.175781 4.726562-21.929688 12.976562-29.488281 8.230469-7.558594 19.367188-11.34375 30.582032-10.351563 20.433594 1.769532 36.441406 20 36.441406 41.496094v14.34375c0 12.503906-6.03125 24.320312-16 31.832031v2.136719l27.121094 7.742188c16.136718 4.617187 27.519531 19.050781 28.65625 35.609374 10.230468-15.265624 16.222656-33.601562 16.222656-53.320312 0-52.9375-43.0625-96-96-96s-96 43.0625-96 96zm88-1.039062v23.070312l-38.726562 11.074219c-7.503907 2.140625-13.328126 7.824219-15.875 14.894531h125.203124c-2.546874-7.078125-8.386718-12.761719-15.875-14.894531l-38.726562-11.074219v-23.070312l3.976562-2.3125c7.527344-4.382813 12.023438-12.105469 12.023438-20.648438v-14.34375c0-13.273438-9.585938-24.496094-21.832031-25.558594-6.816407-.570312-13.375 1.613282-18.382813 6.207032-4.953125 4.535156-7.785156 10.984374-7.785156 17.695312v16c0 8.542969 4.496094 16.265625 12.023438 20.648438zm-63.351562 65.039062c17.582031 19.585938 43.015624 32 71.351562 32s53.769531-12.414062 71.351562-32zm-80.648438-352v48h304v-48zm-64 400h16v-256c0-8.824219 7.175781-16 16-16h16v-16h-24c-13.230469 0-24 10.769531-24 24zm448 16h-48v-272h-16v160h-57.28125c-7.796875 54.183594-54.40625 96-110.71875 96s-102.921875-41.816406-110.71875-96h-57.28125v-160h-16v256h123.3125l2.34375 2.34375c8.679688 8.679688 20.695312 13.65625 32.96875 13.65625h50.75c12.273438 0 24.289062-4.976562 32.96875-13.65625l2.34375-2.34375h107.3125v16h-100.824219c-11.414062 10.199219-26.464843 16-41.808593 16h-50.75c-15.34375 0-30.394532-5.800781-41.808594-16h-164.808594v24c0 13.230469 10.769531 24 24 24h416c13.230469 0 24-10.769531 24-24zm-352-336h-16v16h16zm112 0h-96v16h96zm-112 32h-16v16h16zm112 0h-96v16h96zm-128 48h16v-16h-16zm32 0h96v-16h-96zm0 0" /></svg>