<svg id="Layer_1" data-name="Layer 1" xmlns="http://www.w3.org/2000/svg" viewBox="0 0 445.51 473.03"><defs><style>.cls-1{fill:none;stroke:#0b82a4;stroke-miterlimit:10;stroke-width:10px;}</style></defs><polyline class="cls-1" points="24.67 43.34 5.01 43.34 6 468.03 323.53 468.03 323.53 452.3"/><rect class="cls-1" x="79.72" y="272.4" width="27.53" height="26.54"/><rect class="cls-1" x="79.69" y="321.97" width="27.53" height="26.54"/><rect class="cls-1" x="79.69" y="371.12" width="27.53" height="26.54"/><line class="cls-1" x1="126.91" y1="276.33" x2="331.39" y2="276.33"/><line class="cls-1" x1="126.91" y1="295.99" x2="331.39" y2="295.99"/><line class="cls-1" x1="126.91" y1="325.48" x2="331.39" y2="325.48"/><line class="cls-1" x1="126.91" y1="346.13" x2="331.39" y2="346.13"/><line class="cls-1" x1="126.91" y1="374.63" x2="331.39" y2="374.63"/><line class="cls-1" x1="126.91" y1="395.28" x2="331.39" y2="395.28"/><line class="cls-1" x1="74.81" y1="113.14" x2="129.86" y2="113.14"/><line class="cls-1" x1="74.81" y1="131.82" x2="113.15" y2="131.82"/><rect class="cls-1" x="107.25" y="175.07" width="27.53" height="60.95"/><rect class="cls-1" x="164.27" y="161.31" width="26.54" height="74.71"/><rect class="cls-1" x="221.29" y="148.53" width="26.54" height="85.53"/><rect class="cls-1" x="279.29" y="134.77" width="24.58" height="99.29"/><rect class="cls-1" x="79.72" y="56.12" width="183.83" height="21.63"/><rect class="cls-1" x="393.32" y="168.19" width="30.48" height="274.28"/><rect class="cls-1" x="399.22" y="442.47" width="18.68" height="22.61"/><line class="cls-1" x1="393.32" y1="423.79" x2="423.8" y2="423.79"/><line class="cls-1" x1="393.32" y1="402.16" x2="423.8" y2="402.16"/><line class="cls-1" x1="393.32" y1="381.52" x2="423.8" y2="381.52"/><line class="cls-1" x1="440.51" y1="325.48" x2="440.51" y2="407.08"/><line class="cls-1" x1="425.77" y1="402.16" x2="440.51" y2="402.16"/><polyline class="cls-1" points="393.32 168.19 393.32 151.48 409.05 113.14 423.8 150.49 423.8 164.26"/><polygon class="cls-1" points="43.35 5 289.12 5 360.88 77.75 360.88 429.69 43.35 429.69 43.35 5"/><polyline class="cls-1" points="289.12 8.93 289.12 77.75 358.92 77.75"/></svg>