<svg id="Layer_1" data-name="Layer 1" xmlns="http://www.w3.org/2000/svg" xmlns:xlink="http://www.w3.org/1999/xlink" viewBox="0 0 381.82 434.82"><path fill="#0B82A4" d="M140.13,154.74a9.53,9.53,0,0,0,12-6.06,110.31,110.31,0,0,1,215,34.65c0,47-21,75.09-38,97.66-12.31,16.41-22.93,30.59-22.93,47.79,0,1.13,0,2.25-.05,3.36H266.44V310.25a9.53,9.53,0,0,0-19.06,0v21.89H207.56c0-1.11,0-2.23,0-3.36,0-17.2-10.63-31.38-22.94-47.8C172.12,264.36,158,245.52,151,218.75a9.53,9.53,0,1,0-18.44,4.82c7.95,30.39,23.93,51.71,36.77,68.85,10.69,14.25,19.13,25.51,19.13,36.36,0,4.56.19,9,.56,13.26v80.61c0,.26,0,.51,0,.76a1.09,1.09,0,0,1,0,.18c0,.35.09.7.16,1h0a71.42,71.42,0,0,0,23.87,39.74,68,68,0,0,0,87.62,0,71.42,71.42,0,0,0,23.87-39.74h0c.07-.34.12-.69.16-1a1.09,1.09,0,0,1,0-.18c0-.26,0-.5,0-.76V342c.37-4.25.57-8.7.57-13.26,0-10.85,8.44-22.11,19.12-36.36,17.63-23.52,41.78-55.73,41.78-109.09a129.38,129.38,0,0,0-252.2-40.63A9.54,9.54,0,0,0,140.13,154.74ZM256.91,461.3c-19.37,0-36.85-11.72-45.13-29.12H302C293.76,449.58,276.29,461.3,256.91,461.3Zm48.83-48.18H208.08V391.69h97.66Zm0-40.49H208.08V351.2h97.66Z" transform="translate(-66 -45.54)"/><path fill="#0B82A4"  d="M75.53,192.86h25.39a9.53,9.53,0,0,0,0-19.06H75.53a9.53,9.53,0,0,0,0,19.06Z" transform="translate(-66 -45.54)"/><path fill="#0B82A4" d="M300.55,202.58a9.53,9.53,0,0,0-9.53-9.53H222.81a9.53,9.53,0,0,0,0,19.06h24.57V234a9.53,9.53,0,1,0,19.06,0v-21.9H291A9.53,9.53,0,0,0,300.55,202.58Z" transform="translate(-66 -45.54)"/><path fill="#0B82A4"  d="M139.87,79.77a9.53,9.53,0,1,0,13.48-13.48l-17.95-18a9.53,9.53,0,1,0-13.48,13.47Z" transform="translate(-66 -45.54)"/><path fill="#0B82A4" d="M122.08,327.69a9.5,9.5,0,0,0,6.74-2.79l18-18a9.53,9.53,0,0,0-13.48-13.47l-18,17.95a9.53,9.53,0,0,0,6.74,16.27Z" transform="translate(-66 -45.54)"/><path fill="#0B82A4" d="M367.21,82.56A9.5,9.5,0,0,0,374,79.77l18-18a9.53,9.53,0,0,0-13.48-13.48l-18,18a9.53,9.53,0,0,0,6.74,16.27Z" transform="translate(-66 -45.54)"/><path fill="#0B82A4"  d="M367.05,293.47a9.52,9.52,0,0,0,0,13.47l17.95,18a9.53,9.53,0,0,0,13.48-13.48l-18-17.95A9.51,9.51,0,0,0,367.05,293.47Z" transform="translate(-66 -45.54)"/><path fill="#0B82A4"  d="M412.9,192.86h25.39a9.53,9.53,0,0,0,0-19.06H412.9a9.53,9.53,0,1,0,0,19.06Z" transform="translate(-66 -45.54)"/><path fill="#0B82A4"  d="M256.91,262.6a9.53,9.53,0,1,0,9.53,9.53A9.55,9.55,0,0,0,256.91,262.6Z" transform="translate(-66 -45.54)"/><path fill="#0B82A4"  d="M146.61,183.33a9.53,9.53,0,1,0-9.53,9.53A9.55,9.55,0,0,0,146.61,183.33Z" transform="translate(-66 -45.54)"/></svg>