<svg id="Layer_1" data-name="Layer 1" xmlns="http://www.w3.org/2000/svg" viewBox="0 0 493 497.5"><defs><style>.cls-1,.cls-3{fill:#0b82a4;}.cls-2,.cls-4{fill:none;}.cls-2,.cls-3,.cls-4{stroke:#0b82a4;stroke-miterlimit:10;stroke-width:11px;}.cls-4{stroke-linecap:round;}</style></defs><path class="cls-1" d="M874,357V636H850V357h24m11-11H839V647h46V346Z" transform="translate(-392 -265)"/><polyline class="cls-2" points="385 295.8 385 144 431 144 431 371.62 431 377 412.79 377"/><polyline class="cls-2" points="321 260.69 321 184 367 184 367 282.02"/><polyline class="cls-2" points="257 264.67 257 223 303 223 303 258.21"/><line class="cls-2" x1="421.5" y1="376.5" x2="454.5" y2="376.5"/><path class="cls-2" d="M619.8,544.93A116.63,116.63,0,0,1,688,523c2.35,0,4.69.07,7,.21A117,117,0,0,1,805,640c0,.67,0,1.34,0,2a117,117,0,0,1-231.15,23.59" transform="translate(-392 -265)"/><path class="cls-2" d="M571.62,627.9a116.27,116.27,0,0,1,20.75-55.31" transform="translate(-392 -265)"/><polygon class="cls-1" points="235.02 372.22 222.02 372.22 222.02 377.22 235.02 377.22 235.02 372.22 235.02 372.22"/><path class="cls-2" d="M635.69,579.47a80,80,0,0,1,113,112.67" transform="translate(-392 -265)"/><path class="cls-2" d="M628.22,586.84a80,80,0,0,0,113.1,112.79" transform="translate(-392 -265)"/><rect class="cls-3" x="293.5" y="301.5" width="5" height="13"/><rect class="cls-3" x="293.5" y="436.22" width="5" height="13"/><rect class="cls-3" x="753.02" y="633.22" width="5" height="13" transform="translate(1003.24 -380.8) rotate(90)"/><rect class="cls-3" x="222.02" y="372.22" width="13" height="5"/><rect class="cls-3" x="694.02" y="629.5" width="5" height="21" transform="translate(944.52 -321.52) rotate(90)"/><rect class="cls-3" x="294.02" y="340.22" width="5" height="21"/><path class="cls-2" d="M494.4,606.8a39.88,39.88,0,0,0,24.24,9.66c.62,0,1.24,0,1.86,0h1A40,40,0,0,0,550.8,550.4" transform="translate(-392 -265)"/><path class="cls-2" d="M545.16,545a39.85,39.85,0,0,0-22.71-8.45c-.65,0-1.3,0-2,0s-1.26,0-1.88,0a39.85,39.85,0,0,0-26.26,11.55c-.36.34-.71.7-1,1.07a39.84,39.84,0,0,0-10.81,26.44c0,.19,0,.38,0,.57v.33a39.89,39.89,0,0,0,8.5,24.66" transform="translate(-392 -265)"/><polyline class="cls-2" points="98.41 210.76 104.46 189.87 152.62 189.87 158.76 211.11"/><path class="cls-2" d="M518.64,616.46c.62,0,1.24,0,1.86,0h1" transform="translate(-392 -265)"/><polyline class="cls-2" points="97.42 410.95 103.96 433.55 152.12 433.55 158.67 410.92"/><polyline class="cls-2" points="35.85 360.32 24.69 380.57 58.75 414.62 79.13 403.39"/><polyline class="cls-2" points="177.37 218.88 197.44 207.81 231.5 241.87 220.36 262.08"/><polyline class="cls-2" points="28.02 341.47 5.5 334.96 5.5 286.8 28.1 280.26"/><path class="cls-2" d="M480.51,575.6c0,.19,0,.38,0,.57" transform="translate(-392 -265)"/><path class="cls-2" d="M492.36,548.09c-.36.34-.71.7-1,1.07" transform="translate(-392 -265)"/><polyline class="cls-2" points="35.48 262.38 24.38 242.23 58.43 208.17 78.24 219.09"/><path class="cls-4" d="M489.42,676a103.06,103.06,0,0,1-18.29-7.56" transform="translate(-392 -265)"/><path class="cls-4" d="M427.48,527.38a103.13,103.13,0,0,0-7.38,17.88" transform="translate(-392 -265)"/><path class="cls-4" d="M569.37,483.88a102.65,102.65,0,0,0-18.61-7.77" transform="translate(-392 -265)"/><path class="cls-4" d="M612.36,527.08a103.05,103.05,0,0,1,7.44,17.85,117.32,117.32,0,0,0-27.43,27.66,71.91,71.91,0,0,0-4-19.76,72.68,72.68,0,0,0-36-40.71,69.71,69.71,0,0,0-8.85-3.71,72.76,72.76,0,0,0-47.15,0,70.92,70.92,0,0,0-8.09,3.35,72.71,72.71,0,0,0-33.13,32.75,70.26,70.26,0,0,0-3.65,8.65,72.69,72.69,0,0,0-.43,46.34,70.16,70.16,0,0,0,3.4,8.53,72.7,72.7,0,0,0,33.06,33.78,71.62,71.62,0,0,0,9.29,3.88,72.47,72.47,0,0,0,74.79-17.82A118,118,0,0,0,571,640a116.68,116.68,0,0,0,2.82,25.59,103.64,103.64,0,0,1-23.15,10.33" transform="translate(-392 -265)"/><path class="cls-4" d="M490.41,475.76a102.93,102.93,0,0,0-20.17,8.33" transform="translate(-392 -265)"/><path class="cls-4" d="M427.85,625.32A103.43,103.43,0,0,1,420,606.47" transform="translate(-392 -265)"/><path class="cls-2" d="M518.62,536.54c.62,0,1.25,0,1.88,0s1.3,0,2,0m100.63,56.71h0m-49.26,72.34A116.68,116.68,0,0,1,571,640a118,118,0,0,1,.62-12.1,72.6,72.6,0,0,1-74.79,17.82,71.62,71.62,0,0,1-9.29-3.88,72.7,72.7,0,0,1-33.06-33.78,70.16,70.16,0,0,1-3.4-8.53,72.69,72.69,0,0,1,.43-46.34,70.26,70.26,0,0,1,3.65-8.65,72.71,72.71,0,0,1,33.13-32.75,70.92,70.92,0,0,1,8.09-3.35,72.76,72.76,0,0,1,47.15,0,69.71,69.71,0,0,1,8.85,3.71,72.68,72.68,0,0,1,36,40.71,71.91,71.91,0,0,1,4,19.76,117.32,117.32,0,0,1,27.43-27.66" transform="translate(-392 -265)"/><circle class="cls-4" cx="24" cy="111" r="18.5"/><circle class="cls-4" cx="216" cy="47" r="18.5"/><circle class="cls-4" cx="216" cy="47" r="18.5"/><circle class="cls-4" cx="216" cy="47" r="18.5"/><circle class="cls-4" cx="112" cy="111" r="18.5"/><circle class="cls-4" cx="336" cy="95" r="18.5"/><circle class="cls-4" cx="264" cy="175" r="18.5"/><line class="cls-4" x1="42.5" y1="111.5" x2="88.5" y2="111.5"/><line class="cls-4" x1="127.5" y1="100.5" x2="200.5" y2="56.5"/><line class="cls-4" x1="222.5" y1="64.5" x2="257.5" y2="156.5"/><line class="cls-4" x1="276.5" y1="161.5" x2="321.5" y2="111.5"/><line class="cls-2" x1="348.5" y1="81.5" x2="389.5" y2="42.5"/><polyline class="cls-2" points="384.5 45.5 408 69 412.5 74.5"/><line class="cls-2" x1="484.5" y1="9.5" x2="408.5" y2="70.5"/><polyline class="cls-2" points="449.5 5.5 486.5 5.5 486.5 43.5"/></svg>