<svg id="Layer_1" data-name="Layer 1" xmlns="http://www.w3.org/2000/svg" xmlns:xlink="http://www.w3.org/1999/xlink" viewBox="0 0 512.02 512.01"><title>expert-icon</title><g id="Page-1"><g id="_001---Thinking" data-name="001---Thinking"><path id="Shape" fill="#0B82A4" d="M12.55,319.07a62,62,0,0,0,8.86,5.12c3.7,1.89,9.87,5,10.31,7.26a14.81,14.81,0,0,1-1,8.64c-1.27,2.73-2.61,5.07-3.75,7.11-3.14,5.51-8.36,14.75-.47,21.2,1.84,1.71,5,4.17,7.93,6.4a21.44,21.44,0,0,0-2.78,12.31,12.33,12.33,0,0,0,5,8.37c1.92,1.36,4,2.56,6,3.71,5,2.86,7,4.19,7.68,6.83a23.48,23.48,0,0,1-.94,10.33c-.5,2.22-1,4.43-1.3,6.7A50.15,50.15,0,0,0,51,446a32,32,0,0,0,30.24,23.29,34.8,34.8,0,0,0,7-.73,647.77,647.77,0,0,0,71.94-21.53c19.22,11.28,31.37,45.58,34.54,58.46a8.54,8.54,0,0,0,8.28,6.47l214.19-.6a8.52,8.52,0,0,0,8.12-11.09,66,66,0,0,0-8.64-16.21,79.76,79.76,0,0,1-5.53-9.22,162.16,162.16,0,0,1-9.63-24.29,287.6,287.6,0,0,1-10.1-50.49,144.49,144.49,0,0,1,11.21-74.93,191,191,0,0,1,23.18-36.63c5.12-6.91,10.44-14.07,15.21-21.59a132,132,0,0,0,17.57-41.56,8.53,8.53,0,0,0-16.62-3.86,115.11,115.11,0,0,1-15.36,36.27c-4.43,7-9.55,13.9-14.51,20.57a206.65,206.65,0,0,0-25.11,40,161.56,161.56,0,0,0-12.51,83.8,303.13,303.13,0,0,0,10.76,53.53,179.28,179.28,0,0,0,10.59,26.73,94.09,94.09,0,0,0,6.62,11.09l.57.85-193.56.58a136,136,0,0,0-30-54.49l7.68-2.67c5.73-2,10.06-3.52,12.29-4.27,36.54-11.65,54.82-28.29,54.32-49.49a8.39,8.39,0,0,0-8.71-8.29,8.53,8.53,0,0,0-8.33,8.73c.2,8.73-7,21.51-42.46,32.81-2.32.75-6.83,2.31-12.73,4.38-6.34,2.21-14.38,5-23.25,8h-.06a664.36,664.36,0,0,1-73.34,22.19,15.2,15.2,0,0,1-17.57-11.36,34.05,34.05,0,0,1-2.11-15.12c.25-1.71.65-3.5,1-5.24A37.18,37.18,0,0,0,67,401.77,28.28,28.28,0,0,0,51.2,384.36l-1.83-1.05A31.37,31.37,0,0,1,52.66,378,8.53,8.53,0,0,0,51,365.87c-2-1.51-6.82-5.12-10.41-8,.41-.75.85-1.57,1.29-2.3,1.34-2.35,2.88-5.12,4.36-8.25a31.87,31.87,0,0,0,2.27-19.09c-2-10.41-12-15.51-19.29-19.23a49.18,49.18,0,0,1-7-4.09,35.87,35.87,0,0,1-5.12-4.15c0-1.3,1.39-4.43,7.88-12.34A344,344,0,0,0,64,225a25.46,25.46,0,0,0,3.29-11.54,29.81,29.81,0,0,0-12.51-21.33c-3.46-3.18-6.73-6.16-7.1-8.68a16.74,16.74,0,0,1,1.39-6.07c1.39-3.65,3-7.24,4.6-10.83a125.4,125.4,0,0,0,8.54-23.13,227.72,227.72,0,0,1,7.68-28.23,146.08,146.08,0,0,1,30.62-50c16.31-17.28,42-29.5,76.47-36.35A554.25,554.25,0,0,1,257,17.31a185.44,185.44,0,0,1,27.18.58,8.56,8.56,0,0,0,1.59-17A208.3,208.3,0,0,0,256.15.26a570,570,0,0,0-82.54,11.85c-38.48,7.68-66.44,21.17-85.52,41.34a163.29,163.29,0,0,0-34.24,55.84,250.93,250.93,0,0,0-8.4,30.84,111.45,111.45,0,0,1-7.32,19.45c-1.71,3.88-3.47,7.77-5,11.8a29.73,29.73,0,0,0-2.32,14.33,32.81,32.81,0,0,0,12.48,19c4.18,3.83,6.94,6.52,7,8.88a14.53,14.53,0,0,1-1.45,3.7A329.5,329.5,0,0,1,11.47,278C5.29,285.51-1.19,294.29.16,303.08A26.13,26.13,0,0,0,12.55,319.07Z" transform="translate(0.02 0.01)"/><path id="Shape-2" data-name="Shape" fill="#0B82A4" d="M101.87,127.05a112.37,112.37,0,0,1,23.42-38.4c11.37-12,31-20.9,58.47-26.36a8.53,8.53,0,0,0-3.32-16.74c-31,6.16-53.69,16.71-67.55,31.35a129.35,129.35,0,0,0-27,44.27,216.94,216.94,0,0,0-7,26l16.66,3.69A204.91,204.91,0,0,1,101.87,127.05Z" transform="translate(0.02 0.01)"/><path id="Shape-3" data-name="Shape" fill="#0B82A4" d="M280.4,47.79l-5.12,25.53a101.92,101.92,0,0,0-14.37,6l-21.67-14.5A17.06,17.06,0,0,0,217.8,67L203.64,81.17a17.06,17.06,0,0,0-2.25,21.63l14.44,21.56a101.77,101.77,0,0,0-6,14.37l-25.5,5.12a17.07,17.07,0,0,0-13.68,16.75v20.14a17.06,17.06,0,0,0,13.65,16.73l25.53,5.12a100.8,100.8,0,0,0,6,14.37l-14.51,21.67a17.06,17.06,0,0,0,2.23,21.43l14.16,14.17a17.13,17.13,0,0,0,21.62,2.24L260.9,262a100.8,100.8,0,0,0,14.37,6l5.12,25.49a17.06,17.06,0,0,0,16.74,13.7h20.14A17.06,17.06,0,0,0,334,293.55L339.12,268a100.75,100.75,0,0,0,14.37-6l21.67,14.51a17.08,17.08,0,0,0,21.44-2.23l14.15-14.16A17,17,0,0,0,413,238.53L398.57,217a102.41,102.41,0,0,0,6-14.37l25.5-5.12a17,17,0,0,0,11.75-8.89l12.86,8.62a15.55,15.55,0,0,0,8.28,2.39,15.37,15.37,0,0,0,10.9-4.53l11.35-11.35a15.49,15.49,0,0,0,2-19.4l-11-16.47a78.89,78.89,0,0,0,4.13-9.92l19.31-3.85A15.35,15.35,0,0,0,512,119v-16A15.36,15.36,0,0,0,499.67,87.8l-19.4-3.87A79.26,79.26,0,0,0,476.16,74l11.18-16.67a15.42,15.42,0,0,0-2.13-19.18L473.86,26.82a15.51,15.51,0,0,0-19.41-2L438,35.84a79.37,79.37,0,0,0-9.91-4.13L424.21,12.4A15.37,15.37,0,0,0,409.09,0h-16a15.36,15.36,0,0,0-15.12,12.33l-3.86,19.4a77.48,77.48,0,0,0-9.92,4.14L347.49,24.69a15.45,15.45,0,0,0-19.19,2.13l-7.68,7.68a17.9,17.9,0,0,0-3.35-.37H297.13A17.08,17.08,0,0,0,280.4,47.79ZM410.85,81.24l-4-4a34,34,0,0,1,10.61,64.06l-13-2.56a102.41,102.41,0,0,0-6-14.37l14.51-21.66a17.07,17.07,0,0,0-2.21-21.46ZM339.43,39.8l19.51,13.11a8.52,8.52,0,0,0,9.11.24,62.39,62.39,0,0,1,15.62-6.52,8.54,8.54,0,0,0,6.14-6.57l4.58-23h13.35l4.58,23a8.56,8.56,0,0,0,6.15,6.57,62,62,0,0,1,15.61,6.53,8.56,8.56,0,0,0,9.12-.3l19.5-13.09,9.47,9.47L459.09,68.8a8.54,8.54,0,0,0-.24,9.12,62.33,62.33,0,0,1,6.52,15.61,8.57,8.57,0,0,0,6.57,6.15l23,4.58v13.35l-23,4.58a8.51,8.51,0,0,0-6.57,6.14A62.79,62.79,0,0,1,458.89,144a8.52,8.52,0,0,0,.25,9.11l13.09,19.51L462.75,182l-19-12.72V160.6a17.12,17.12,0,0,0-6-13,51.08,51.08,0,0,0-35.58-87.87A49.52,49.52,0,0,0,387,62.23a17.3,17.3,0,0,0-11.95,2.62L353.5,79.29a101.92,101.92,0,0,0-14.37-6L334,47.82a15.45,15.45,0,0,0-.59-2ZM291,81.72l6.14-30.52h20.14l6.13,30.55a8.53,8.53,0,0,0,6.14,6.55,83.81,83.81,0,0,1,20.15,8.37,8.55,8.55,0,0,0,9-.29L384.54,79.1l14.3,14.23-17.32,25.85a8.49,8.49,0,0,0-.29,9,84.19,84.19,0,0,1,8.36,20.15,8.53,8.53,0,0,0,6.55,6.14l30.53,6.1v20.15l-30.55,6.13a8.56,8.56,0,0,0-6.56,6.14,84,84,0,0,1-8.36,20.14,8.55,8.55,0,0,0,.29,9L398.76,248l-14.22,14.31L358.69,245a8.55,8.55,0,0,0-9-.29,83.88,83.88,0,0,1-20.15,8.37,8.52,8.52,0,0,0-6.13,6.55l-6.11,30.52H297.13L291,259.58a8.55,8.55,0,0,0-6.14-6.55,84.19,84.19,0,0,1-20.15-8.36,8.53,8.53,0,0,0-9,.29l-25.82,17.27L215.56,248l17.32-25.84a8.51,8.51,0,0,0,.29-9A84.19,84.19,0,0,1,224.81,193a8.51,8.51,0,0,0-6.55-6.13l-30.53-6.11V160.6l30.55-6.14a8.55,8.55,0,0,0,6.56-6.13,84,84,0,0,1,8.36-20.15,8.55,8.55,0,0,0-.29-9L215.64,93.33,229.86,79l25.85,17.32a8.55,8.55,0,0,0,9,.29,83.85,83.85,0,0,1,20.15-8.36A8.56,8.56,0,0,0,291,81.72Z" transform="translate(0.02 0.01)"/><path id="Shape-4" data-name="Shape" fill="#0B82A4" d="M307.2,230.4a59.74,59.74,0,1,0-59.73-59.73A59.73,59.73,0,0,0,307.2,230.4Zm0-102.4a42.67,42.67,0,1,1-42.67,42.67A42.67,42.67,0,0,1,307.2,128Z" transform="translate(0.02 0.01)"/><circle id="Oval" fill="#0B82A4" cx="307.22" cy="170.68" r="8.53"/><circle id="Oval-2" data-name="Oval" fill="#0B82A4" cx="76.82" cy="179.21" r="8.53"/></g></g></svg>