<svg xmlns="http://www.w3.org/2000/svg" xmlns:xlink="http://www.w3.org/1999/xlink" viewBox="0 0 499.31 499.31"><title>identify-icon</title><path fill="#0B82A4" d="M152,220.69l-44.86,44.86a56.2,56.2,0,0,0-14.25,24.22l-9.17,32.08a40.09,40.09,0,0,1-10.18,17.29L64,348.69l-8-8L4.69,392,120,507.31,171.31,456l-8-8,8-8H504V8H152Zm-32,264L27.31,392,56,363.31,148.69,456ZM75.31,360l9.55-9.54a56.2,56.2,0,0,0,14.25-24.22l9.17-32.08a40.13,40.13,0,0,1,10.18-17.3l58.23-58.23a9,9,0,0,1,12.69,12.68l-51,51,11.32,11.32,51-51,16-16a9,9,0,0,1,12.69,12.69l-67,67,11.32,11.32,67-67,8-8a9,9,0,0,1,12.69,12.69l-75,75,11.32,11.32,75-75,80-80a9,9,0,0,1,12.69,12.69L204.69,360l18.16,18.16L290.3,336H291A13,13,0,0,1,299,359.34l-65,37.57a39.8,39.8,0,0,1-11.78,5.57l-36.41,10.41a56,56,0,0,0-24.23,14.25L152,436.69ZM488,24V424H205.14l21.44-6.14a54.43,54.43,0,0,0,15.94-7.44l65-37.58A29,29,0,0,0,291,320h-5.3l-49,30.66,140-140a25,25,0,1,0-35.3-35.31l-63.56,63.55a24.64,24.64,0,0,0-31.08-13.36,24.79,24.79,0,0,0-40.88-10.58A25,25,0,0,0,183,200a24.69,24.69,0,0,0-15,5.15V24ZM472,40H184v96H472Zm-16,80H200V56H456Zm16,48H400V152h72Zm-72,16h72v16H400Zm0,32h72v16H400Zm24,48V248h48v16ZM232,88H216V72h16Zm32,0H248V72h16Zm32,0H280V72h16Zm-96,80H184V152h16Zm16-16h16v16H216Zm32,0h16v16H248ZM472,312.5H400v-16h72Zm-72,16h72v16H400Zm0,32h72v16H400Zm24,48v-16h48v16Z" transform="translate(-4.69 -8)"/></svg>