<svg id="Layer_1" data-name="Layer 1" xmlns="http://www.w3.org/2000/svg" viewBox="0 0 755.64 756.54"><defs><style>.cls-1{fill:#0b82a4;}.cls-2,.cls-3,.cls-4{fill:none;stroke:#0b82a4;stroke-miterlimit:10;}.cls-2{stroke-width:18px;}.cls-3{stroke-width:11px;}.cls-4{stroke-width:20px;}</style></defs><path class="cls-1" d="M581.5,191a295.49,295.49,0,1,1-115.41,23.29A294.8,294.8,0,0,1,581.5,191m0-16C408.91,175,269,314.91,269,487.5S408.91,800,581.5,800,894,660.09,894,487.5,754.09,175,581.5,175Z" transform="translate(-269 -175)"/><path class="cls-1" d="M577.37,243.38a243.83,243.83,0,1,1-95.22,19.22,243.15,243.15,0,0,1,95.22-19.22m0-16c-143.94,0-260.63,116.69-260.63,260.63S433.43,748.64,577.37,748.64,838,632,838,488,721.31,227.38,577.37,227.38Z" transform="translate(-269 -175)"/><path class="cls-1" d="M577.82,387A101.76,101.76,0,1,1,476.06,488.75,101.87,101.87,0,0,1,577.82,387m0-20A121.76,121.76,0,1,0,699.57,488.75,121.75,121.75,0,0,0,577.82,367Z" transform="translate(-269 -175)"/><path class="cls-1" d="M565.9,455.16a53.17,53.17,0,0,0,46.93,43.68,36,36,0,1,1-46.93-43.68M578.18,433a56,56,0,1,0,54.44,42.79,33.07,33.07,0,0,1-45.14-42,55.85,55.85,0,0,0-9.3-.77Z" transform="translate(-269 -175)"/><path class="cls-2" d="M814.79,695.43,991.5,826.5s46,44,11,81c-32,33.83-74,0-74,0L762.65,742.17" transform="translate(-269 -175)"/><path class="cls-3" d="M320.5,484.5" transform="translate(-269 -175)"/><path class="cls-3" d="M831.5,479.5" transform="translate(-269 -175)"/><path class="cls-4" d="M324.5,489.5s112-165,257-165c101,0,187,74,250,160" transform="translate(-269 -175)"/><path class="cls-4" d="M323.88,484.32s112,165,257,165c101,0,187-74,250-160" transform="translate(-269 -175)"/></svg>