<svg height="479pt" viewBox="0 -1 479.10719 479" width="479pt" xmlns="http://www.w3.org/2000/svg" xmlns:xlink="http://www.w3.org/1999/xlink"><path fill="#0B82A4" d="m144 237.199219c-10.484375.007812-20.542969 4.144531-28 11.511719-15.679688-15.453126-40.902344-15.332032-56.429688.273437-15.53125 15.605469-15.53125 40.824219 0 56.429687 15.527344 15.605469 40.75 15.726563 56.429688.273438 12.875 12.691406 32.660156 15.167969 48.269531 6.042969 15.605469-9.125 23.152344-27.582031 18.40625-45.027344-4.742187-17.445313-20.597656-29.539063-38.675781-29.503906zm-56 64c-13.253906 0-24-10.746094-24-24 0-13.253907 10.746094-24 24-24s24 10.746093 24 24c0 13.253906-10.746094 24-24 24zm56 0c-7.410156-.050781-14.375-3.558594-18.824219-9.488281 3.765625-9.308594 3.765625-19.714844 0-29.023438 4.449219-5.925781 11.414063-9.4375 18.824219-9.488281 13.253906 0 24 10.746093 24 24 0 13.253906-10.746094 24-24 24zm0 0" /><path fill="#0B82A4" d="m473.808594 324.800781-41.808594-72.402343v-23.199219c-.066406-20.585938-15.777344-37.746094-36.28125-39.625l-97.917969-169.597657c-11.121093-19.0625-35.539062-25.578124-54.679687-14.59375l-180.066406 104c-19.148438 11.023438-25.730469 35.488282-14.703126 54.632813l14.578126 25.183594h-22.929688c-22.082031.027343-39.9726562 17.917969-40 40v208c.0273438 22.082031 17.917969 39.972656 40 40h352c22.082031-.027344 39.972656-17.917969 40-40v-42.03125l27.128906-15.6875c19.082032-11.101563 25.636719-35.515625 14.679688-54.679688zm-222.679688-305.554687c11.480469-6.589844 26.128906-2.679688 32.800782 8.753906l93.09375 161.199219h-96.671876c4.269532-.820313 8.371094-2.339844 12.144532-4.496094 13.964844-8.050781 21.734375-23.699219 19.707031-39.6875-2.03125-15.992187-13.460937-29.203125-28.996094-33.511719 5.492188-21.304687-7.257812-43.046875-28.53125-48.65625-21.273437-5.613281-43.085937 7.007813-48.820312 28.25-5.734375 21.238282 6.761719 43.125 27.96875 48.980469-2.792969 10.640625-1.050781 21.960937 4.8125 31.269531 5.859375 9.308594 15.316406 15.769532 26.117187 17.851563h-72.539062l-58.871094-101.929688zm-27.417968 94.320312c-6.613282-11.480468-2.671876-26.152344 8.808593-32.769531 11.476563-6.621094 26.148438-2.683594 32.773438 8.792969 6.625 11.476562 2.695312 26.148437-8.78125 32.777344-5.515625 3.1875-12.070313 4.050781-18.222657 2.398437-6.152343-1.648437-11.398437-5.679687-14.578124-11.199219zm26.769531 27.527344c10.066406-1.492188 19.171875-6.796875 25.441406-14.8125 7.316406.964844 13.753906 5.332031 17.359375 11.773438 6.625 11.488281 2.6875 26.171874-8.800781 32.800781-11.488281 6.628906-26.171875 2.6875-32.800781-8.800781-3.632813-6.421876-4.074219-14.164063-1.199219-20.960938zm-113.679688 48.105469-44.976562-77.945313 27.679687-16 54.238282 93.945313zm-74.59375-33.191407c-6.605469-11.476562-2.667969-26.140624 8.800781-32.761718l6.914063-4 40.382813 69.953125h-36.890626zm353.792969 281.191407c0 13.253906-10.746094 24-24 24h-352c-13.253906 0-24-10.746094-24-24v-8h400zm0-24h-400v-32h400zm0-48h-400v-136c0-13.253907 10.746094-24 24-24h352c13.253906 0 24 10.746093 24 24zm35.121094.441406-19.121094 11.054687v-92.296874l27.9375 48.378906c6.582031 11.515625 2.644531 26.183594-8.816406 32.863281zm0 0" /></svg>