<svg id="Layer_1" data-name="Layer 1" xmlns="http://www.w3.org/2000/svg" xmlns:xlink="http://www.w3.org/1999/xlink" viewBox="0 0 511 511" fill="#0B82A4"><title>output-icon</title><path d="M92.36,212.92H93a49,49,0,0,0,49.74-46.14l1-22.92a46.85,46.85,0,0,0-13.22-34.73A50.67,50.67,0,0,0,94,93.68H91.37a50.69,50.69,0,0,0-36.52,15.45,46.82,46.82,0,0,0-13.22,34.73l1,22.92A49,49,0,0,0,92.36,212.92Zm.65-17h-.65a32,32,0,0,1-32.72-29.81l-.3-6.95a76.91,76.91,0,0,0,44.53-16.71A38,38,0,0,0,126.08,158l-.35,8.09A32,32,0,0,1,93,195.88Zm-1.64-85.16H94a33.59,33.59,0,0,1,24.23,10.22,30,30,0,0,1,8.32,19.13,20.17,20.17,0,0,1-11.5-14.25,8.55,8.55,0,0,0-15.86-3.17c-.11.18-10.68,16.9-40.5,19.45a30,30,0,0,1,8.44-21.16A33.61,33.61,0,0,1,91.37,110.72Z" transform="translate(1 0)"/><path d="M424.51,417.32h.65a49,49,0,0,0,49.74-46.14l1-22.92a46.85,46.85,0,0,0-13.22-34.74,50.72,50.72,0,0,0-36.57-15.44h-2.63A50.68,50.68,0,0,0,387,313.52a46.85,46.85,0,0,0-13.22,34.74l1,22.92A49,49,0,0,0,424.51,417.32Zm-25.22-92a33.57,33.57,0,0,1,24.23-10.22h2.63a33.57,33.57,0,0,1,24.23,10.22,30,30,0,0,1,8.52,22.23l-1,22.9a32,32,0,0,1-32.72,29.81h-.65a32,32,0,0,1-32.72-29.81l-1-23A30,30,0,0,1,399.29,325.34Z" transform="translate(1 0)"/><path d="M24.55,408.8a25.52,25.52,0,0,0,8.52-1.46v10a8.51,8.51,0,0,0,8.52,8.51h102.2a8.51,8.51,0,0,0,8.51-8.51V279.23a8.51,8.51,0,0,1,2.28-5.81L262.65,157.19a23.57,23.57,0,0,0-33.33-33.33l-95.08,95.08a8.52,8.52,0,0,1-6,2.49H41.59A42.64,42.64,0,0,0-1,264V383.25A25.55,25.55,0,0,0,24.55,408.8ZM16,264a25.54,25.54,0,0,1,25.55-25.54h86.62A25.38,25.38,0,0,0,146.28,231l95.08-95.08a6.72,6.72,0,0,1,9.25,0,6.63,6.63,0,0,1-.12,9.38l-.09.09L142.08,261.83a25.55,25.55,0,0,0-6.81,17.4V408.8H50.1V281.05a8.52,8.52,0,1,0-17,0v102.2a8.52,8.52,0,0,1-17,0Z" transform="translate(1 0)"/><path d="M92.69,366.22a8.52,8.52,0,0,0,8.51-8.52V255.5a8.52,8.52,0,1,0-17,0V357.7A8.52,8.52,0,0,0,92.69,366.22Z" transform="translate(1 0)"/><path d="M237.15,417.32h.64a49,49,0,0,0,49.74-46.14l1-22.92a46.88,46.88,0,0,0-13.22-34.74,50.7,50.7,0,0,0-36.53-15.44h-2.62a50.69,50.69,0,0,0-36.53,15.44,46.85,46.85,0,0,0-13.22,34.74l1,22.92A49,49,0,0,0,237.15,417.32Zm-25.23-92a33.59,33.59,0,0,1,24.24-10.22h2.62A33.61,33.61,0,0,1,263,325.34a30.13,30.13,0,0,1,8.52,22.23l-1,22.9a32,32,0,0,1-32.72,29.81h-.65a32,32,0,0,1-32.72-29.81l-1-23A30,30,0,0,1,211.92,325.34Z" transform="translate(1 0)"/><path d="M152.3,467v35.49a8.52,8.52,0,1,0,17,0V467a24.15,24.15,0,0,1,24.13-24.12h88A24.14,24.14,0,0,1,305.6,467v35.49a8.52,8.52,0,1,0,17,0V467a41.2,41.2,0,0,0-41.16-41.16h-88A41.21,41.21,0,0,0,152.3,467Z" transform="translate(1 0)"/><path d="M468.84,425.83h-88A41.19,41.19,0,0,0,339.67,467v35.49a8.52,8.52,0,1,0,17,0V467a24.14,24.14,0,0,1,24.13-24.12h88A24.15,24.15,0,0,1,493,467v35.49a8.52,8.52,0,1,0,17,0V467A41.2,41.2,0,0,0,468.84,425.83Z" transform="translate(1 0)"/><path d="M484.88,0H185.94a25.37,25.37,0,0,0-25.12,25.55V153.3a8.52,8.52,0,1,0,17,0V51.1H493V255.5a8.31,8.31,0,0,1-8.09,8.51H194.25a8.52,8.52,0,0,0,0,17H484.88A25.37,25.37,0,0,0,510,255.5V25.55A25.37,25.37,0,0,0,484.88,0Zm-307,34.07V25.55A8.33,8.33,0,0,1,185.94,17H484.88A8.33,8.33,0,0,1,493,25.55v8.52Z" transform="translate(1 0)"/><path d="M467.42,108.59a8.51,8.51,0,0,0-8.52,8.51V238.47a8.52,8.52,0,0,0,17,0V117.1A8.52,8.52,0,0,0,467.42,108.59Z" transform="translate(1 0)"/><path d="M433.35,161.82a8.52,8.52,0,0,0-8.52,8.51v68.14a8.52,8.52,0,0,0,17,0V170.33A8.51,8.51,0,0,0,433.35,161.82Z" transform="translate(1 0)"/><path d="M390.77,153.3v85.17a8.52,8.52,0,0,0,17,0V153.3a8.52,8.52,0,1,0-17,0Z" transform="translate(1 0)"/><path d="M365.22,195.88a8.52,8.52,0,0,0-8.52,8.52v34.07a8.52,8.52,0,0,0,17,0V204.4A8.52,8.52,0,0,0,365.22,195.88Z" transform="translate(1 0)"/><path d="M324.34,201a8.51,8.51,0,0,0,11.92,1.71l34.07-25.55a8.61,8.61,0,0,0,2.55-3l29.5-59,25.86,19.42a8.52,8.52,0,0,0,11.93-1.7l.27-.38,34.07-51.1a8.52,8.52,0,1,0-14.18-9.46l-29.07,43.61L404.4,95.39A8.53,8.53,0,0,0,392.46,97a9,9,0,0,0-.84,1.36l-33.16,66.34L326,189.07A8.52,8.52,0,0,0,324.34,201Z" transform="translate(1 0)"/><path d="M305.6,85.17a8.52,8.52,0,0,0,0-17H203.4a8.52,8.52,0,0,0,0,17Z" transform="translate(1 0)"/><path d="M356.7,85.17a8.52,8.52,0,1,0,0-17h-17a8.52,8.52,0,0,0,0,17Z" transform="translate(1 0)"/></svg>