<svg fill="#0B82A4" xmlns="http://www.w3.org/2000/svg" xmlns:xlink="http://www.w3.org/1999/xlink" version="1.1" x="0px" y="0px" viewBox="0 0 100 125" enable-background="new 0 0 100 100" xml:space="preserve"><g><rect x="-192" width="185" height="99"/><rect y="-36" width="100" height="30"/><line fill="#000000" stroke="#FFFFFF" stroke-miterlimit="10" x1="8" y1="-14.5" x2="18" y2="-14.5"/><line fill="#000000" stroke="#FFFFFF" stroke-miterlimit="10" x1="-179" y1="16.5" x2="-162" y2="16.5"/><g><g><g><rect x="-170.802" y="31.318" fill="#000000" width="8.721" height="8.642"/><path fill="#000000" d="M-164.455,42.312h4.747v-4.703h-4.747V42.312z M-159.266,42.749h-5.63V37.17h5.63V42.749      L-159.266,42.749z M-166.221,44.062h8.279v-8.203h-8.279V44.062L-166.221,44.062z M-157.5,44.5h-9.163v-9.079h9.163V44.5      L-157.5,44.5z"/><polygon fill="#000000" points="-166.149,44.133 -166.292,43.991 -158.013,35.787 -157.871,35.929     "/></g></g></g><rect x="-179" y="58" fill="none" width="35" height="32.5"/><rect x="-136.5" y="58" fill="none" width="35" height="32.5"/><rect x="-94" y="58" fill="none" width="35" height="32.5"/><rect x="-50" y="58" fill="none" width="35" height="32.5"/><rect x="-126.514" y="34.815" fill="#000000" width="10.261" height="10.185"/><rect x="-126.477" y="31.766" fill="#000000" width="0.522" height="2.337"/><rect x="-116.812" y="31.766" fill="#000000" width="0.523" height="2.337"/><rect x="-127" y="32.337" fill="#000000" width="11.233" height="0.572"/><g><rect x="-83.805" y="33.844" fill="#000000" width="10.305" height="10.156"/><rect x="-76.809" y="28.707" fill="#000000" width="3.308" height="3.261"/></g><rect x="-178.5" y="22.5" fill="#000000" stroke="#FFFFFF" stroke-miterlimit="10" width="30" height="30"/><rect x="-136.5" y="22.5" fill="#000000" stroke="#FFFFFF" stroke-miterlimit="10" width="30" height="30"/><rect x="-93.5" y="22.5" fill="#000000" stroke="#FFFFFF" stroke-miterlimit="10" width="30" height="30"/><rect x="-49.5" y="22.5" fill="#000000" stroke="#FFFFFF" stroke-miterlimit="10" width="30" height="30"/></g><g><path fill-rule="evenodd" clip-rule="evenodd" d="M31.65,89.924c-6.268,0-12.405,0-18.65,0C13,63.281,13,36.702,13,10   c6.17,0,12.372,0,18.65,0C31.65,36.616,31.65,63.203,31.65,89.924z"/><path fill-rule="evenodd" clip-rule="evenodd" d="M55.559,89.986c-3.432,0-6.784,0-10.138-0.002   c-2.389-0.002-4.779-0.057-7.165,0.014c-1.084,0.033-1.438-0.268-1.431-1.393c0.043-7.344,0.015-14.688,0.015-22.033   c0.001-9.422,0.008-18.844,0.012-28.268c0-0.479,0-0.959,0-1.537c6.274,0,12.44,0,18.707,0   C55.559,54.422,55.559,72.094,55.559,89.986z"/><path fill-rule="evenodd" clip-rule="evenodd" d="M42.874,15.831c2.059-2.065,3.864-3.876,5.702-5.72   C59.652,21.216,70.789,32.381,82.008,43.63c1.926-1.994,3.664-3.793,5.402-5.593c0.096,0.058,0.191,0.114,0.283,0.173   c0,5.577,0,11.154,0,16.83c-5.578,0-11.156,0-17.012,0c2.08-1.992,3.975-3.811,5.854-5.609   C65.158,38.072,53.992,26.927,42.874,15.831z"/><path fill-rule="evenodd" clip-rule="evenodd" d="M79.389,89.92c-6.238,0-12.371,0-18.609,0c0-8.852,0-17.664,0-26.574   c6.156,0,12.324,0,18.609,0C79.389,72.143,79.389,80.959,79.389,89.92z"/></g></svg>