<svg id="Capa_1" data-name="Capa 1" xmlns="http://www.w3.org/2000/svg" xmlns:xlink="http://www.w3.org/1999/xlink" viewBox="0 0 480 480"><title>collaborate-icon</title><path fill="#0B82A4"  d="M480,40a40,40,0,0,0-77-15.21L284.82,47a47.92,47.92,0,0,0-89.77.36L79.28,32.85A40,40,0,1,0,32,79.19v97.62a39.88,39.88,0,0,0,3.27,78.71L66.76,305.9a47.89,47.89,0,0,0-21.48,79.16A56.07,56.07,0,0,0,0,440v32a8,8,0,0,0,8,8H152a8,8,0,0,0,8-8V448H360.81A40,40,0,1,0,408,400.81V368h64a8,8,0,0,0,8-8V328a56.07,56.07,0,0,0-45.28-54.94,47.91,47.91,0,0,0-24.22-79.87L446.07,79.38A39.94,39.94,0,0,0,480,40ZM440,16a24,24,0,1,1-24,24A24,24,0,0,1,440,16ZM400.16,41.61A39.89,39.89,0,0,0,429.6,78.46L394,192.42A48,48,0,0,0,359.11,215l-39.24-65.4a56.06,56.06,0,0,0-45.16-52.53A47.7,47.7,0,0,0,288,64c0-.46-.06-.9-.07-1.34Zm-77.9,270.75L271.59,268a39.89,39.89,0,0,0-30.53-34.88L246.94,192H312a8,8,0,0,0,8-8v-3.12l32.3,53.84A48.6,48.6,0,0,0,352,240a47.78,47.78,0,0,0,13.28,33.06A56.14,56.14,0,0,0,322.26,312.36ZM84.58,304.23,53,253.66a39.86,39.86,0,0,0,26.57-33.07L160,166.94V184a8,8,0,0,0,8,8h62.78L225,232.71a39.89,39.89,0,0,0-32.56,35.37l-69.49,62.54A48,48,0,0,0,84.58,304.23ZM216,112h48a40,40,0,0,1,40,40v24H176V152A40,40,0,0,1,216,112Zm16,136a24,24,0,1,1-24,24A24,24,0,0,1,232,248ZM128,352c0-1.43-.09-2.84-.22-4.25L195,287.22a39.94,39.94,0,0,0,74-.2l45.68,40L158.29,426.51a56.11,56.11,0,0,0-43.58-41.45A47.74,47.74,0,0,0,128,352ZM240,32a32,32,0,1,1-32,32A32,32,0,0,1,240,32ZM78.91,48.93,192.05,63.07c0,.31-.05.62-.05.93a47.78,47.78,0,0,0,13.28,33.06,56.08,56.08,0,0,0-45.06,50.51L77.55,202.69A40,40,0,0,0,48,176.81V79.19A40.07,40.07,0,0,0,78.91,48.93ZM16,40A24,24,0,1,1,40,64,24,24,0,0,1,16,40Zm0,176a24,24,0,1,1,24,24A24,24,0,0,1,16,216ZM80,320a32,32,0,1,1-32,32A32,32,0,0,1,80,320Zm64,144H16V440a40,40,0,0,1,40-40h48a40,40,0,0,1,40,40Zm280-24a24,24,0,1,1-24-24A24,24,0,0,1,424,440Zm-32-39.19A40.11,40.11,0,0,0,360.81,432H179.47L320,342.58V360a8,8,0,0,0,8,8h64ZM464,328v24H336V328a40,40,0,0,1,40-40h48A40,40,0,0,1,464,328Zm-32-88a32,32,0,1,1-32-32A32,32,0,0,1,432,240Z"/></svg>