<svg id="Layer_1" data-name="Layer 1" xmlns="http://www.w3.org/2000/svg" viewBox="0 0 373.01 350.52"><defs><style>.cls-1{fill:none;stroke:#0b82a4;stroke-linecap:round;stroke-linejoin:round;stroke-width:10px;}</style></defs><path class="cls-1" d="M67,90H21L15,63s-.53-20.62,5-28c6-8,10-14,26-14S70,40,70,40s24,64,26,124,5.25,93.07,2,137c-2,27-.22,26.94-1,24,0,0,4,27,20,33,10,3.75,18.13,4,25,3,4.13-.62,8-2.5,11-4,8-4,18-21,19-28s0-22,0-22H378v20s-2,13-11,23-25,11-25,11H140" transform="translate(-9.99 -16)"/><path class="cls-1" d="M53,21H272s23,3,30,15,8,16,8,16l20,110s12,132,9,144" transform="translate(-9.99 -16)"/><polyline class="cls-1" points="170.01 165 188.01 182 240.01 126"/><path class="cls-1" d="M214,262s26-18,40-33c8.9-9.53,18-24,25-43,4.7-12.76,5.4-15.94,8-35,3-22,1-37,1-37s-11,1-33-4c-18.5-4.2-19-6-26-11-10.42-7.44-15-12-15-12" transform="translate(-9.99 -16)"/><path class="cls-1" d="M213.89,262.33s-26-18-40-33c-8.89-9.54-18-24-25-43-4.7-12.77-5.4-15.94-8-35-3-22-1-37-1-37s11,1,33-4c18.5-4.21,19-6,26-11,10.42-7.45,15-12,15-12" transform="translate(-9.99 -16)"/></svg>