<svg id="Layer_1" data-name="Layer 1" xmlns="http://www.w3.org/2000/svg" xmlns:xlink="http://www.w3.org/1999/xlink" viewBox="0 0 512 493.7"><title>time-icon</title><path fill="#0B82A4" d="M7.5,373.83a7.5,7.5,0,0,0,7.5-7.5V147.89H458.13v82.44a7.5,7.5,0,1,0,15,0V82.11a45.65,45.65,0,0,0-45.6-45.6H407.86V27.22A18.24,18.24,0,0,0,389.64,9H375.71A18.23,18.23,0,0,0,357.5,27.22v9.29H307.75V27.22A18.23,18.23,0,0,0,289.54,9H275.6a18.23,18.23,0,0,0-18.21,18.22v9.29H207.64V27.22A18.24,18.24,0,0,0,189.42,9H175.49a18.24,18.24,0,0,0-18.22,18.22v9.29H107.53V27.22A18.24,18.24,0,0,0,89.31,9H75.38A18.24,18.24,0,0,0,57.16,27.22v9.29H45.6A45.65,45.65,0,0,0,0,82.11V366.33A7.5,7.5,0,0,0,7.5,373.83Zm365-346.61A3.22,3.22,0,0,1,375.71,24h13.94a3.22,3.22,0,0,1,3.21,3.22V63.66a3.21,3.21,0,0,1-3.21,3.21H375.71a3.21,3.21,0,0,1-3.21-3.21Zm-100.11,0A3.22,3.22,0,0,1,275.6,24h13.94a3.22,3.22,0,0,1,3.21,3.22V63.66a3.21,3.21,0,0,1-3.21,3.21H275.6a3.21,3.21,0,0,1-3.21-3.21Zm-100.12,0A3.23,3.23,0,0,1,175.49,24h13.94a3.22,3.22,0,0,1,3.21,3.22V63.66a3.21,3.21,0,0,1-3.21,3.21H175.49a3.22,3.22,0,0,1-3.22-3.21Zm-100.11,0A3.23,3.23,0,0,1,75.38,24H89.32a3.22,3.22,0,0,1,3.21,3.22V63.66a3.21,3.21,0,0,1-3.21,3.21H75.38a3.22,3.22,0,0,1-3.22-3.21ZM45.6,51.51H57.16V63.66A18.24,18.24,0,0,0,75.38,81.87H89.32a18.23,18.23,0,0,0,18.21-18.21V51.51h49.75V63.66a18.23,18.23,0,0,0,18.21,18.21h13.94a18.23,18.23,0,0,0,18.21-18.21V51.51h49.75V63.66a18.23,18.23,0,0,0,18.22,18.21h13.93a18.23,18.23,0,0,0,18.21-18.21V51.51H357.5V63.66a18.23,18.23,0,0,0,18.21,18.21h13.94a18.23,18.23,0,0,0,18.21-18.21V51.51h19.67a30.63,30.63,0,0,1,30.6,30.6v50.78H15V82.11A30.63,30.63,0,0,1,45.6,51.51Z" transform="translate(0 -9)"/><path fill="#0B82A4" d="M84.91,443.58H19.51A4.51,4.51,0,0,1,15,439.07V400.51a7.5,7.5,0,0,0-15,0v38.56a19.53,19.53,0,0,0,19.51,19.51h65.4a7.5,7.5,0,1,0,0-15Z" transform="translate(0 -9)"/><path fill="#0B82A4" d="M84.66,169.76H58.59a7.5,7.5,0,0,0,0,15H84.66a7.5,7.5,0,0,0,0-15Z" transform="translate(0 -9)"/><path fill="#0B82A4" d="M138.71,184.76h26.07a7.5,7.5,0,0,0,0-15H138.71a7.5,7.5,0,0,0,0,15Z" transform="translate(0 -9)"/><path fill="#0B82A4" d="M218.82,184.76h26.07a7.5,7.5,0,0,0,0-15H218.82a7.5,7.5,0,0,0,0,15Z" transform="translate(0 -9)"/><path fill="#0B82A4" d="M298.94,184.76H325a7.5,7.5,0,0,0,0-15H298.94a7.5,7.5,0,0,0,0,15Z" transform="translate(0 -9)"/><path fill="#0B82A4" d="M405.12,169.76H379.05a7.5,7.5,0,1,0,0,15h26.07a7.5,7.5,0,0,0,0-15Z" transform="translate(0 -9)"/><path fill="#0B82A4" d="M84.66,207.48H58.59a7.5,7.5,0,0,0,0,15H84.66a7.5,7.5,0,0,0,0-15Z" transform="translate(0 -9)"/><path fill="#0B82A4" d="M138.71,222.48h26.07a7.5,7.5,0,0,0,0-15H138.71a7.5,7.5,0,0,0,0,15Z" transform="translate(0 -9)"/><path fill="#0B82A4" d="M218.82,222.48h26.07a7.5,7.5,0,0,0,0-15H218.82a7.5,7.5,0,0,0,0,15Z" transform="translate(0 -9)"/><path fill="#0B82A4" d="M298.94,222.48H325a7.5,7.5,0,0,0,0-15H298.94a7.5,7.5,0,0,0,0,15Z" transform="translate(0 -9)"/><path fill="#0B82A4" d="M405.12,207.48H379.05a7.5,7.5,0,0,0,0,15h26.07a7.5,7.5,0,0,0,0-15Z" transform="translate(0 -9)"/><path fill="#0B82A4" d="M138.89,369.71l38.56,38.57a29.54,29.54,0,0,0,41.77,0l105.6-105.61a29.54,29.54,0,1,0-41.77-41.77l-84.71,84.72L180.66,328a29.53,29.53,0,1,0-41.77,41.76Zm10.61-31.16a14.55,14.55,0,0,1,20.55,0l23,23a7.5,7.5,0,0,0,10.61,0l90-90a14.53,14.53,0,1,1,20.55,20.56l-105.6,105.6a14.52,14.52,0,0,1-20.55,0L149.5,359.11A14.55,14.55,0,0,1,149.5,338.55Z" transform="translate(0 -9)"/><path fill="#0B82A4" d="M473.13,324.36V264.51a7.5,7.5,0,0,0-15,0v50.28A99.49,99.49,0,0,0,321.56,443.58H119.09a7.5,7.5,0,1,0,0,15H329.87A99.47,99.47,0,1,0,473.13,324.36ZM412.5,487.7A84.51,84.51,0,1,1,497,403.2,84.6,84.6,0,0,1,412.5,487.7Z" transform="translate(0 -9)"/><path fill="#0B82A4" d="M412.5,329.53a73.67,73.67,0,1,0,73.66,73.67A73.76,73.76,0,0,0,412.5,329.53Zm6.71,131.93a7.39,7.39,0,0,0,.79-3.32V449a7.5,7.5,0,0,0-15,0v9.14a7.38,7.38,0,0,0,.78,3.32,58.75,58.75,0,0,1-51.55-51.55,7.42,7.42,0,0,0,3.32.79h9.13a7.5,7.5,0,0,0,0-15h-9.13a7.41,7.41,0,0,0-3.32.78,58.75,58.75,0,0,1,51.55-51.55,7.38,7.38,0,0,0-.78,3.32v9.14a7.5,7.5,0,0,0,15,0v-9.14a7.39,7.39,0,0,0-.79-3.32,58.76,58.76,0,0,1,51.56,51.55,7.45,7.45,0,0,0-3.33-.78H458.3a7.5,7.5,0,0,0,0,15h9.14a7.46,7.46,0,0,0,3.33-.79A58.77,58.77,0,0,1,419.21,461.46Z" transform="translate(0 -9)"/><path fill="#0B82A4" d="M429,395.7h-9V388a7.5,7.5,0,0,0-15,0v15.2a7.5,7.5,0,0,0,7.5,7.5H429a7.5,7.5,0,0,0,0-15Z" transform="translate(0 -9)"/></svg>