<svg id="Layer_1" data-name="Layer 1" xmlns="http://www.w3.org/2000/svg" viewBox="0 0 470.44 492.1"><defs><style>.cls-1,.cls-2{fill:none;stroke:#0b82a4;stroke-width:11px;}.cls-1{stroke-miterlimit:10;}.cls-2{stroke-linecap:round;stroke-linejoin:round;}</style></defs><circle class="cls-1" cx="388.94" cy="206.52" r="76"/><polyline class="cls-2" points="398.94 196.52 398.94 161.52 378.94 161.52 378.94 196.52"/><polyline class="cls-2" points="398.94 216.52 398.94 251.52 378.94 251.52 378.94 216.52"/><polyline class="cls-2" points="378.94 216.52 343.94 216.52 343.94 196.52 378.94 196.52"/><polyline class="cls-2" points="398.94 216.52 433.94 216.52 433.94 196.52 398.94 196.52"/><path class="cls-2" d="M793.5,367.5v-63h-350l-1,410s9,40,37,38,48-18,47-40-14-45-44-45,311-1,311-1v-90" transform="translate(-404.56 -265.98)"/><line class="cls-2" x1="388.94" y1="400.52" x2="81.94" y2="486.52"/><rect class="cls-2" x="75.94" y="301.52" width="47" height="47"/><rect class="cls-2" x="76.34" y="210.96" width="47" height="47"/><line class="cls-2" x1="144.94" y1="76.52" x2="279.94" y2="76.52"/><line class="cls-2" x1="73.94" y1="122.52" x2="322.94" y2="123.52"/><line class="cls-2" x1="76.94" y1="168.52" x2="288.94" y2="168.52"/><line class="cls-2" x1="167.94" y1="222.52" x2="283.94" y2="222.52"/><line class="cls-2" x1="168.94" y1="259.52" x2="296.94" y2="259.52"/><line class="cls-2" x1="167.94" y1="313.52" x2="292.94" y2="313.52"/><line class="cls-2" x1="168.94" y1="349.52" x2="350.94" y2="349.52"/><path class="cls-2" d="M750.91,304.5a23.27,23.27,0,0,0-5.41-23c-10-11-21-10-25-10h-285s-24,5-25,23,0,401,0,401,6,33,32,25" transform="translate(-404.56 -265.98)"/></svg>