<svg id="Layer_1" data-name="Layer 1" xmlns="http://www.w3.org/2000/svg" xmlns:xlink="http://www.w3.org/1999/xlink" viewBox="0 0 512 440"><title>trust-icon</title><path fill="#0B82A4" d="M503.59,244.17a29.76,29.76,0,0,0-14.15-8.25,29.74,29.74,0,0,0,4.54-17C493.41,203,479.72,190,463.46,190h-59.4L404,101a35,35,0,0,0-70,0v23.55a42.5,42.5,0,0,1-3.63,17.2A82.59,82.59,0,0,1,251,59.33V48.5A12.52,12.52,0,0,0,238.5,36h-129A12.52,12.52,0,0,0,97,48.5V57a82.59,82.59,0,0,1-82.5,82.5h-2A12.52,12.52,0,0,0,0,152V302C0,398,78.05,476,174,476A173.87,173.87,0,0,0,332,375H436.54a25.8,25.8,0,0,0,18.3-7.71A24.54,24.54,0,0,0,459.89,340h3.57c16.26,0,30-13,30.52-28.91A29.68,29.68,0,0,0,489.36,294c12.58-3.39,22.15-14.6,22.62-27.87A29.79,29.79,0,0,0,503.59,244.17ZM174,461C86.33,461,15,389.67,15,302V154.5A97.62,97.62,0,0,0,112,57V51H236v8.33a97.65,97.65,0,0,0,84.17,96.59,43.17,43.17,0,0,1-5.85,4.49l-41,26.07A22.36,22.36,0,0,1,261.27,190H252a22.54,22.54,0,0,0-21.54-16h-42a22.54,22.54,0,0,0-21.21,15H130.5A19.53,19.53,0,0,0,111,208.5v129A19.53,19.53,0,0,0,130.5,357H166v73.79c-67.38-3.9-121-60-121-128.29V178.23A102.47,102.47,0,0,0,139.74,80.5H166v66a7.5,7.5,0,0,0,15,0V73a7.5,7.5,0,0,0-7.5-7.5H132.33a7.5,7.5,0,0,0-7.5,7.5v3.17A87.43,87.43,0,0,1,37.5,163.5,7.5,7.5,0,0,0,30,171V302.5C30,381.63,94.38,446,173.5,446a7.5,7.5,0,0,0,7.5-7.5V371.23a20.35,20.35,0,0,0,5.5.77h44a22.48,22.48,0,0,0,18-9l8,4.53A57.61,57.61,0,0,0,284.85,375h30.44A158.9,158.9,0,0,1,174,461Zm-8-119H130.5a4.51,4.51,0,0,1-4.5-4.5v-129a4.51,4.51,0,0,1,4.5-4.5H166Zm315.46-62H423a7.5,7.5,0,0,0,0,15h41a15,15,0,0,1,15,15.55c-.28,8-7.25,14.45-15.53,14.45H437l-.5,0-.5,0H423a7.5,7.5,0,0,0,0,15h13l.5,0,.5,0a10.05,10.05,0,0,1,10,9.81,9.69,9.69,0,0,1-2.86,7,10.75,10.75,0,0,1-7.6,3.21H284.85a42.55,42.55,0,0,1-21-5.53L253,348.3v-17a7.5,7.5,0,1,0-15,0V349.5a7.5,7.5,0,0,1-7.5,7.5h-44a5.51,5.51,0,0,1-5.5-5.5v-155a7.5,7.5,0,0,1,7.5-7.5h42a7.5,7.5,0,0,1,7.5,7.5v99.83a7.5,7.5,0,0,0,15,0V205h8.27a37.43,37.43,0,0,0,20.12-5.86l41-26.08A57.21,57.21,0,0,0,349,124.55V101a20,20,0,0,1,40,0l.06,91.51A12.52,12.52,0,0,0,401.56,205h61.9c8.28,0,15.25,6.48,15.53,14.45A15,15,0,0,1,464,235H423a7.5,7.5,0,0,0,0,15h59a15,15,0,0,1,15,15.55C496.71,273.52,489.74,280,481.46,280Z" transform="translate(0 -36)"/></svg>